<?xml version="1.0" encoding="utf-8"?>
<!-- Generator: Adobe Illustrator 17.1.0, SVG Export Plug-In . SVG Version: 6.00 Build 0)  -->
<!DOCTYPE svg PUBLIC "-//W3C//DTD SVG 1.1//EN" "http://www.w3.org/Graphics/SVG/1.1/DTD/svg11.dtd">
<svg version="1.1" id="Layer_2" xmlns="http://www.w3.org/2000/svg" xmlns:xlink="http://www.w3.org/1999/xlink" x="0px" y="0px"
	 viewBox="0 0 1652.7 892.6" enable-background="new 0 0 1652.7 892.6" xml:space="preserve">
<rect x="0" y="0" opacity="0.55" width="1652.7" height="892.6"/>
<g>
	<line fill="none" stroke="#FFFFFF" stroke-width="2" stroke-miterlimit="10" x1="900.9" y1="731.4" x2="1497.4" y2="1321.4"/>
	<line fill="none" stroke="#FFFFFF" stroke-width="2" stroke-miterlimit="10" x1="-124.6" y1="-300.6" x2="510.9" y2="338.6"/>
	<g>
		<g>
			<path fill="#FFFFFF" d="M683.9,671h-3.3l-1.4-7.4h-12.6L665,671h-3.3l8.8-41.2h4.5L683.9,671z M678.5,660.7l-5.6-27.3l-5.8,27.3
				H678.5z"/>
			<path fill="#FFFFFF" d="M732.6,629.8l-7.1,41.2h-4.3l-5.7-32.7l-5.7,32.7h-4.3l-7.1-41.2h2.9l6.2,36.9l6.6-36.9h2.5l6.6,36.9
				l6.3-36.9H732.6z"/>
			<path fill="#FFFFFF" d="M752.3,671h-14.7v-41.2h14.7v2.9h-11.8v15h8.8v2.9h-8.8V668h11.8V671z"/>
			<path fill="#FFFFFF" d="M775.7,644.7c0,2.4-1.1,4-2.9,4.5c1.8,0.5,2.9,2.2,2.9,4.5v11.4c0,3.2-2.6,5.9-5.9,5.9H758v-41.2h11.8
				c3.2,0,5.9,2.6,5.9,5.9V644.7z M772.7,635.7c0-1.6-1.3-2.9-2.9-2.9H761v15h8.8c1.6,0,2.9-1.3,2.9-2.9V635.7z M772.7,653.6
				c0-1.6-1.3-2.9-2.9-2.9H761V668h8.8c1.6,0,2.9-1.3,2.9-2.9V653.6z"/>
			<path fill="#FFFFFF" d="M812.3,648.6c0,3.2-2.6,5.9-5.9,5.9h-8.8V671h-2.9v-41.2h11.8c3.2,0,5.9,2.6,5.9,5.9V648.6z M809.3,635.7
				c0-1.6-1.3-2.9-2.9-2.9h-8.8v18.8h8.8c1.6,0,2.9-1.3,2.9-2.9V635.7z"/>
			<path fill="#FFFFFF" d="M835.6,665.1c0,3.2-2.6,5.9-5.9,5.9h-5.9c-3.2,0-5.9-2.6-5.9-5.9v-29.4c0-3.2,2.6-5.9,5.9-5.9h5.9
				c3.2,0,5.9,2.6,5.9,5.9V665.1z M832.7,635.7c0-1.6-1.3-2.9-2.9-2.9h-5.9c-1.6,0-2.9,1.3-2.9,2.9v29.4c0,1.6,1.4,2.9,2.9,2.9h5.9
				c1.6,0,2.9-1.3,2.9-2.9V635.7z"/>
			<path fill="#FFFFFF" d="M856.1,652.9l4.4,18.1h-3.3l-3.9-17.9h-7.5V671h-2.9v-41.2h11.8c3.3,0,5.9,2.6,5.9,5.9v11.5
				C860.4,649.9,858.6,652.2,856.1,652.9z M857.5,635.7c0-1.6-1.3-2.9-2.9-2.9h-8.8v17.4h8.8c1.6,0,2.9-1.3,2.9-2.9V635.7z"/>
			<path fill="#FFFFFF" d="M883.8,632.8h-7.4V671h-2.9v-38.2h-7.4v-2.9h17.6V632.8z"/>
			<path fill="#FFFFFF" d="M904.2,632.8h-11.8v15h8.8v2.9h-8.8V671h-2.9v-41.2h14.7V632.8z"/>
			<path fill="#FFFFFF" d="M927.6,665.1c0,3.2-2.6,5.9-5.9,5.9h-5.9c-3.2,0-5.9-2.6-5.9-5.9v-29.4c0-3.2,2.6-5.9,5.9-5.9h5.9
				c3.2,0,5.9,2.6,5.9,5.9V665.1z M924.6,635.7c0-1.6-1.3-2.9-2.9-2.9h-5.9c-1.6,0-2.9,1.3-2.9,2.9v29.4c0,1.6,1.4,2.9,2.9,2.9h5.9
				c1.6,0,2.9-1.3,2.9-2.9V635.7z"/>
			<path fill="#FFFFFF" d="M949.4,671h-14.7v-41.2h2.9V668h11.8V671z"/>
			<path fill="#FFFFFF" d="M958.1,671h-2.9v-41.2h2.9V671z"/>
			<path fill="#FFFFFF" d="M982.9,665.1c0,3.2-2.6,5.9-5.9,5.9h-5.9c-3.2,0-5.9-2.6-5.9-5.9v-29.4c0-3.2,2.6-5.9,5.9-5.9h5.9
				c3.2,0,5.9,2.6,5.9,5.9V665.1z M980,635.7c0-1.6-1.3-2.9-2.9-2.9h-5.9c-1.6,0-2.9,1.3-2.9,2.9v29.4c0,1.6,1.4,2.9,2.9,2.9h5.9
				c1.6,0,2.9-1.3,2.9-2.9V635.7z"/>
		</g>
		<path fill="none" stroke="#FFFFFF" stroke-miterlimit="10" d="M924.2,560.2"/>
		<path fill="none" stroke="#FFFFFF" stroke-miterlimit="10" d="M915.3,365.4"/>
		<path fill="none" stroke="#FFFFFF" stroke-width="3" stroke-miterlimit="10" d="M884.3,331.3c0,0-25.1-25-28.1-29.9
			c0,0-13.3-14-22.2-22.8c2-1.2,5.1-2.2,8.7-1.1c0,0,37-42.1,37.1-42.8l-14.2-10.3c0,0-36.7,40.9-36.9,41.3c0,0,1.6,3.7,0,7.8
			c-1.3-1.1-2.2-1.9-2.5-1.9c0,0-21.1-20.4-22.3-23.6c0,0-3-3.5-4.2-5.5c0,0-1.5-1.9-3.9-2.4v-1.6c0,0-4-4.7-4.8-6
			c0,0-0.6-2.8,0.7-3.5c0,0,2.8-3.4,15.1-0.5c0,0,4.1,1.5,7-1c0,0,1.7-0.7-1.7-1.5c0,0-6.8-2.7-15.4-3.6c0,0-4.4-1.5-13.3,2.5
			c0,0-10.4,7.8-12.6,10.4c0,0-0.4,6-5.2,8.1c0,0-1.7,0.3-2.1,0.6l-3.4,3.7c0,0-0.4,7,8.2,8.5c0,0,2.8-2.5,3.4-3.4
			c0,0,0.3-3.1,1-4.5c0,0,1.3-3.5,4.8-4.2c0,0,4.4-0.5,8.1,4.2c0,0,0.8,0.5,1.7,0.6c0,0,4.2,5.3,6.7,6.1c0,0,15.8,14.6,23,23.4
			c0,0,1.1,1.3,2.9,3.4c0,0-0.1,0-0.1,0l-0.9,0.4c0,0-1-0.3-1.2,0.3l-0.7-0.1l-4.4,5c0,0-6.8,5.3-7.3,6.5c0,0-3.1,2.1-5.5,6
			c0,0-2.2,3.4-5.6,6.4c0,0-6.1,5.1-8,8.7c0,0-8,9.1-8.3,9.7c0,0-0.3-0.1-0.5,1.5c0,0-3.2,3.2-4.1,4.7c0,0-1.5,5.2,2,8
			c0,0,5.4,6.3,11.2,3l3.9-4.1c0,0,0.2-0.3,0-0.6c0,0,1.1,0.2,1.8-0.7l6.5-7.6c0,0,5.1-5,6.1-7.5c0,0,4.1-6.6,6.2-8.3
			c0,0,2.9-2.8,3.5-3.4c0,0,3-3.1,3.8-5l5.3-8.6l3.8-4.8l0-0.7c0,0,0.1,0,0.2-0.1c7.1,8.2,15.6,17.8,17.1,18.6
			c0,0,13.7,15.3,16.7,17.9c0,0,11.1,12,11.9,14.2c0,0,1.1,1.8,2.9,0.7c0,0,7.9-6.2,8.2-7.7C884.3,333.9,885.4,332.6,884.3,331.3z"
			/>
		<path fill="none" stroke="#FFFFFF" stroke-miterlimit="10" d="M822.3,276.9"/>
		<path fill="none" stroke="#FFFFFF" stroke-miterlimit="10" d="M771.3,376.8"/>
		<g>
			<path fill="#FFFFFF" d="M538.1,427.2v133h-13.1v-133h-14.2v-12.9h40.5v12.9H538.1z"/>
			<path fill="#FFFFFF" d="M583.5,503.1v57.2h-13.1v-57.2l-16.2-88.8h12.5l11.2,68.4l11.4-68.4h12.5L583.5,503.1z"/>
			<path fill="#FFFFFF" d="M608.9,560.2v-146H622v132.8h21.5v13.1H608.9z"/>
			<path fill="#FFFFFF" d="M652.7,560.2v-146h35.5v12.5h-22.4v52.2h16.2v12.5h-16.2v56.3h22.4v12.5H652.7z"/>
			<path fill="#FFFFFF" d="M738.2,561.3c-7.7,0-11-2.8-11-13.6v-42.5c0-5.9-3.1-9.6-7.7-9.6h-7.9v64.6h-13.4v-146h22.1
				c8.5,0,19.3,4.4,19.3,23v34c0,8.8-2.2,15.3-9,18.4c6.8,3.1,9.4,9.6,9.4,18.2v39.7c0,3.9,0.4,5.7,2.8,5.7v8.1H738.2z M726.6,436
				c0-5.9-2.6-8.3-6.4-8.3h-8.5v55.2h7.5c4.4,0,7.5-3.7,7.5-9.6V436z"/>
			<path fill="#FFFFFF" d="M792.1,562c-11.8,0-21.3-10.1-21.3-25v-99.5c0-14.7,9.4-25,21.3-25s20.4,10.3,20.4,25v27.8h-11.4v-30.5
				c0-4.8-3.1-9-8.3-9c-5.5,0-8.5,4.2-8.5,9v104.8c0,5,3.1,9,8.5,9c5.3,0,8.3-3.9,8.3-9V509h11.4V537
				C812.5,551.9,803.9,562,792.1,562z"/>
			<path fill="#FFFFFF" d="M844.2,562c-11.8,0-21.7-10.1-21.7-25v-99.5c0-14.7,9.9-25,21.7-25s21.7,10.3,21.7,25V537
				C865.9,551.9,856.1,562,844.2,562z M852.8,434.9c0-4.8-3.3-9-8.5-9c-5.5,0-8.5,4.2-8.5,9v104.8c0,5,3.1,9,8.5,9
				c5.3,0,8.5-3.9,8.5-9V434.9z"/>
			<path fill="#FFFFFF" d="M897.9,562c-11.8,0-21.3-10.1-21.3-25v-99.5c0-14.7,9.4-25,21.3-25s20.4,10.3,20.4,25v27.8h-11.4v-30.5
				c0-4.8-3.1-9-8.3-9c-5.5,0-8.5,4.2-8.5,9v104.8c0,5,3.1,9,8.5,9c5.3,0,8.3-3.9,8.3-9V509h11.4V537
				C918.3,551.9,909.8,562,897.9,562z"/>
			<path fill="#FFFFFF" d="M959.3,560.2v-65.7h-16.4v65.7h-13.4v-146h13.4V482h16.4v-67.7h13.1v146H959.3z"/>
			<path fill="#FFFFFF" d="M1025,561.3c-7.7,0-11-2.8-11-13.6v-42.5c0-5.9-3.1-9.6-7.7-9.6h-7.9v64.6h-13.4v-146h22.1
				c8.5,0,19.3,4.4,19.3,23v34c0,8.8-2.2,15.3-9,18.4c6.8,3.1,9.4,9.6,9.4,18.2v39.7c0,3.9,0.4,5.7,2.8,5.7v8.1H1025z M1013.4,436
				c0-5.9-2.6-8.3-6.4-8.3h-8.5v55.2h7.5c4.4,0,7.5-3.7,7.5-9.6V436z"/>
			<path fill="#FFFFFF" d="M1066.2,560.2l-2.2-29.6h-14.5l-3.1,29.6h-12.1l16.4-146h13.8l15.3,146H1066.2z M1057.7,450l-6.8,67.7
				h12.1L1057.7,450z"/>
			<path fill="#FFFFFF" d="M1124.1,560.2l-19.3-75.4l-4.4-22.1v97.5h-12.5v-146h12.9l16.7,76.3l3.9,22.6v-98.8h12.5v146H1124.1z"/>
		</g>
		<line fill="none" stroke="#FFFFFF" stroke-width="2" stroke-miterlimit="10" x1="446.4" y1="595.7" x2="1206.3" y2="595.7"/>
		<line fill="none" stroke="#FFFFFF" stroke-width="2" stroke-miterlimit="10" x1="446.4" y1="378.8" x2="1206.3" y2="378.8"/>
	</g>
</g>
</svg>
