<?xml version="1.0" encoding="utf-8"?>
<!-- Generator: Adobe Illustrator 17.1.0, SVG Export Plug-In . SVG Version: 6.00 Build 0)  -->
<!DOCTYPE svg PUBLIC "-//W3C//DTD SVG 1.1//EN" "http://www.w3.org/Graphics/SVG/1.1/DTD/svg11.dtd">
<svg version="1.1" id="Layer_2" xmlns="http://www.w3.org/2000/svg" xmlns:xlink="http://www.w3.org/1999/xlink" x="0px" y="0px"
	 viewBox="-623.4 584.1 599.3 384" enable-background="new -623.4 584.1 599.3 384" xml:space="preserve">
<g>
	<g>
		<path fill="#FFFFFF" d="M-432.7,949.1h-2.6l-1-5.8h-10l-1.2,5.8h-2.6l7-32.6h3.6L-432.7,949.1z M-437,940.7l-4.4-21.4l-4.4,21.4
			H-437z"/>
		<path fill="#FFFFFF" d="M-394.4,916.5l-5.6,32.6h-3.4l-4.4-25.8l-4.4,25.8h-3.4l-5.6-32.6h2.4l4.9,29.2l5.2-29.2h1.9l5.2,29.2
			l4.9-29.2H-394.4z"/>
		<path fill="#FFFFFF" d="M-378.9,949.1h-11.4v-32.6h11.4v2.4h-9.4v12h7v2.4h-7v13.6h9.4V949.1z"/>
		<path fill="#FFFFFF" d="M-360.4,928.3c0,1.9-0.8,3.2-2.4,3.6c1.5,0.4,2.4,1.7,2.4,3.6v9c0,2.6-2.2,4.6-4.6,4.6h-9.4v-32.6h9.4
			c2.6,0,4.6,2.2,4.6,4.6V928.3z M-362.7,921.2c0-1.2-1-2.4-2.4-2.4h-7v12h7c1.2,0,2.4-1,2.4-2.4V921.2z M-362.7,935.3
			c0-1.2-1-2.4-2.4-2.4h-7v13.6h7c1.2,0,2.4-1,2.4-2.4V935.3z"/>
		<path fill="#FFFFFF" d="M-331.6,931.4c0,2.6-2.2,4.6-4.6,4.6h-7v13h-2.4v-32.6h9.4c2.6,0,4.6,2.2,4.6,4.6V931.4L-331.6,931.4z
			 M-334,921.2c0-1.2-1-2.4-2.4-2.4h-7v14.8h7c1.2,0,2.4-1,2.4-2.4V921.2z"/>
		<path fill="#FFFFFF" d="M-313.2,944.5c0,2.6-2.2,4.6-4.6,4.6h-4.6c-2.6,0-4.6-2.2-4.6-4.6v-23.2c0-2.6,2.2-4.6,4.6-4.6h4.6
			c2.6,0,4.6,2.2,4.6,4.6V944.5z M-315.4,921.2c0-1.2-1-2.4-2.4-2.4h-4.6c-1.2,0-2.4,1-2.4,2.4v23.2c0,1.2,1,2.4,2.4,2.4h4.6
			c1.2,0,2.4-1,2.4-2.4V921.2z"/>
		<path fill="#FFFFFF" d="M-297,934.8l3.4,14.3h-2.6l-3-14h-6v14h-2.4v-32.6h9.4c2.6,0,4.6,2.2,4.6,4.6v9.2
			C-293.8,932.3-295,934.3-297,934.8z M-295.9,921.2c0-1.2-1-2.4-2.4-2.4h-7v13.6h7c1.2,0,2.4-1,2.4-2.4V921.2z"/>
		<path fill="#FFFFFF" d="M-275.2,918.9h-5.8v30h-2.4v-30h-5.8v-2.4h13.8L-275.2,918.9L-275.2,918.9z"/>
		<path fill="#FFFFFF" d="M-259.1,918.9h-9.4v12h7v2.4h-7v16h-2.4v-32.6h11.4v2.4h0.3L-259.1,918.9L-259.1,918.9z"/>
		<path fill="#FFFFFF" d="M-240.8,944.5c0,2.6-2.2,4.6-4.6,4.6h-4.6c-2.6,0-4.6-2.2-4.6-4.6v-23.2c0-2.6,2.2-4.6,4.6-4.6h4.6
			c2.6,0,4.6,2.2,4.6,4.6V944.5z M-243.2,921.2c0-1.2-1-2.4-2.4-2.4h-4.6c-1.2,0-2.4,1-2.4,2.4v23.2c0,1.2,1,2.4,2.4,2.4h4.6
			c1.2,0,2.4-1,2.4-2.4V921.2L-243.2,921.2z"/>
		<path fill="#FFFFFF" d="M-223.6,949.1H-235v-32.6h2.4v30h9.4v2.6L-223.6,949.1L-223.6,949.1z"/>
		<path fill="#FFFFFF" d="M-216.8,949.1h-2.4v-32.6h2.4V949.1z"/>
		<path fill="#FFFFFF" d="M-197.2,944.5c0,2.6-2.2,4.6-4.6,4.6h-4.6c-2.6,0-4.6-2.2-4.6-4.6v-23.2c0-2.6,2.2-4.6,4.6-4.6h4.6
			c2.6,0,4.6,2.2,4.6,4.6V944.5z M-199.5,921.2c0-1.2-1-2.4-2.4-2.4h-4.6c-1.2,0-2.4,1-2.4,2.4v23.2c0,1.2,1,2.4,2.4,2.4h4.6
			c1.2,0,2.4-1,2.4-2.4V921.2z"/>
	</g>
	<path fill="none" stroke="#FFFFFF" stroke-miterlimit="10" d="M-323.7,871.4"/>
	<path fill="none" stroke="#FFFFFF" stroke-miterlimit="10" d="M-323.7,718"/>
	<path fill="none" stroke="#FFFFFF" stroke-miterlimit="10" d="M-323.7,727"/>
	<g>
		<path fill="#FFFFFF" d="M-547.7,765.1V870h-10.4V765.1h-11.2v-10.2h31.9v10.2H-547.7z"/>
		<path fill="#FFFFFF" d="M-511.9,824.9V870h-10.4v-45.1l-12.8-70h9.7l8.7,53.8l9-53.8h9.7L-511.9,824.9z"/>
		<path fill="#FFFFFF" d="M-491.8,869.8V754.8h10.4v104.7h17v10.4L-491.8,869.8L-491.8,869.8z"/>
		<path fill="#FFFFFF" d="M-457.4,869.8V754.8h27.9v9.8h-17.7v41h12.8v9.7h-12.8v44.2h17.7v9.8h-27.9V869.8z"/>
		<path fill="#FFFFFF" d="M-390,870.6c-6.2,0-8.7-2.2-8.7-10.6v-33.4c0-4.6-2.4-7.6-6.2-7.6h-6.2v50.9h-10.5V754.8h17.4
			c6.6,0,15.2,3.4,15.2,18v26.8c0,7-1.7,12.1-7,14.4c5.3,2.4,7.4,7.6,7.4,14.3v31.3c0,3,0.2,4.4,2.2,4.4v6.3h-3.4v0.3L-390,870.6
			L-390,870.6z M-399,772c0-4.6-2.2-6.6-5.2-6.6h-6.6v43.4h6c3.4,0,6-3,6-7.6L-399,772L-399,772z"/>
		<path fill="#FFFFFF" d="M-347.4,871.4c-9.4,0-16.8-7.8-16.8-19.8v-78.3c0-11.4,7.4-19.8,16.8-19.8c9.4,0,16.2,8,16.2,19.8v22h-9
			v-24c0-3.8-2.4-7-6.6-7c-4.2,0-6.6,3.4-6.6,7v82.5c0,4,2.4,7,6.6,7c4.2,0,6.6-3,6.6-7v-24h9V852
			C-331.4,863.5-338.2,871.4-347.4,871.4z"/>
		<path fill="#FFFFFF" d="M-306.6,871.4c-9.4,0-17-7.8-17-19.8v-78.3c0-11.4,7.8-19.8,17-19.8c9.4,0,17,8,17,19.8v78.3
			C-289.4,863.5-297,871.4-306.6,871.4z M-299.8,771.1c0-3.8-2.6-7-6.6-7c-4.2,0-6.6,3.4-6.6,7v82.6c0,4,2.4,7,6.6,7
			c4.2,0,6.6-3,6.6-7V771.1z"/>
		<path fill="#FFFFFF" d="M-264.2,871.4c-9.4,0-16.8-7.8-16.8-19.8v-78.3c0-11.4,7.4-19.8,16.8-19.8c9.4,0,16.2,8,16.2,19.8v22h-9
			v-24c0-3.8-2.4-7-6.6-7s-6.6,3.4-6.6,7v82.5c0,4,2.4,7,6.6,7s6.6-3,6.6-7v-24h9V852C-248,863.5-254.8,871.4-264.2,871.4z"/>
		<path fill="#FFFFFF" d="M-215.7,869.8v-51.7h-13v51.7h-10.6V754.8h10.6v53.4h13v-53.4h10.4v115.1L-215.7,869.8L-215.7,869.8z"/>
		<path fill="#FFFFFF" d="M-164,870.6c-6.2,0-8.7-2.2-8.7-10.6v-33.4c0-4.6-2.4-7.6-6.2-7.6h-6.2v50.9h-10.6V754.8h17.4
			c6.6,0,15.2,3.4,15.2,18v26.8c0,7-1.7,12.1-7,14.4c5.3,2.4,7.4,7.6,7.4,14.3v31.3c0,3,0.2,4.4,2.2,4.4v6.3h-3.4L-164,870.6
			L-164,870.6z M-173.2,772c0-4.6-2.2-6.6-5.2-6.6h-6.6v43.4h6c3.4,0,6-3,6-7.6L-173.2,772L-173.2,772z"/>
		<path fill="#FFFFFF" d="M-131.6,869.8l-1.7-23.4h-11.4l-2.4,23.4h-9.6l13-115.1h10.9l12.1,115.1H-131.6z M-138.4,783l-5.3,53.4
			h9.6L-138.4,783z"/>
		<path fill="#FFFFFF" d="M-85.9,869.8l-15.2-59.4l-3.4-17.4v76.8h-9.7V754.8h10.2l13.2,60.2l3,17.8V755h9.7v115.1L-85.9,869.8
			L-85.9,869.8z"/>
	</g>
	<line fill="none" stroke="#FFFFFF" stroke-miterlimit="10" x1="-594.7" y1="889.2" x2="-52.7" y2="889.2"/>
	<line fill="none" stroke="#FFFFFF" stroke-width="2" stroke-miterlimit="10" x1="-594.7" y1="884.4" x2="-52.7" y2="884.4"/>
	<line fill="none" stroke="#FFFFFF" stroke-miterlimit="10" x1="-594.7" y1="735.6" x2="-52.7" y2="735.6"/>
	<line fill="none" stroke="#FFFFFF" stroke-width="2" stroke-miterlimit="10" x1="-594.7" y1="740.1" x2="-52.7" y2="740.1"/>
	<path fill="none" stroke="#FFFFFF" stroke-width="1.5" stroke-miterlimit="10" d="M-292.9,673.4c-1.4-6.2-5-11.1-9.2-15.6
		c-1.1-1.1-2.3-2.3-3.4-3.4c2.4-11,4.6-22.1,6.9-33.2c0.6-2.8,1.2-5.3,4.5-6c0.3-0.1,0.6-0.6,0.7-0.8c-0.3-0.2-0.6-0.6-0.8-0.6
		c-3.6-0.3-6.3-0.4-7.8,4c-1,2.9-1.8,5.8-2.7,8.6c-2.3,7.4-4.4,14.7-6.7,22.2c-0.8-0.8-1.7-1.7-2.5-2.6c-3-3.3-5.1-7.1-4.9-12
		c0.1-4.1-0.3-8.2-0.6-12.2c-0.1-1.5,0.1-2.4,1.5-3.3c4.4-3.4,4-12.2-1.7-14.7c-2-0.9-3.7-1.1-5.2-0.9c-3.4,0.4-6.5,2.7-7.4,6.1
		c-1,4,0.2,7.4,3.3,10c0.8,0.7,1,1.4,0.9,2.4c-0.2,2.3-0.2,4.5-0.1,6.7c0,1.4-0.4,1.7-1.7,1.4c-1-0.3-2.2-0.2-3.3-0.2
		c-0.4,0-1,0.1-1.1,0.4c-0.7,1.6-1.9,1.2-3.2,1.2c-1.1,0-2.2,0-3.3,0c-1.2-4-2.4-8-3.6-12c-1.2-4.1-2.8-5.3-6.6-5.3
		c-0.6,0-1.1-0.1-1.7,0c-0.4,0.1-0.8,0.6-1.2,0.7c0.4,0.2,0.7,0.6,1.1,0.7c2.8,0.6,3.8,2.4,4.3,5c0.7,3.6,1.6,7.4,2.3,10.9
		c-1.4,0-2.7,0-4,0c-0.6,0-1-0.6-1.6-0.6c-0.7,0-1.7-0.1-2.2,0.3c-0.4,0.3-0.4,1.7,0,2c0.4,0.4,1.5,0.4,2.2,0.4
		c1.9-0.1,4-0.6,5.8-0.6c0.1,0,0.1,0,0.2,0c1.5,7.4,3,14.5,4.5,21.9c-1.5,1.5-2.8,2.8-4.2,4.2c-5,5.1-8.2,11-9.3,18
		c-1.9,12.1,4.5,22.9,15.1,28c2.9,1.5,6,2.3,9.2,2.3c0.3,1.7,0.6,3.3,1,5.1c0.6,2.5,3,5,5.3,5.2c2.9,0.3,5.6-1.4,6.3-4.3
		c0.6-1.9,1-4,1.5-5.9c5.6-0.1,10.4-2.4,14.7-5.8c5-4,8.3-9.1,9.5-15.3c0.1-0.3,0.2-0.6,0.3-0.9c0-2.7,0-5.2,0-7.9
		C-292.2,675.8-292.5,674.6-292.9,673.4z M-329.7,608.1c1.4-2.5,4.2-4.2,6.9-3.7c3.3,0.6,5.8,3.1,6.1,6.2c0.2,2.3-0.7,4.4-2,5
		c-0.8-1.1-1.6-2.3-2.3-3.4c-2.7,2.5-2.7,2.5-4.8,0.1l-2,3.9C-330.5,614.4-331.1,610.6-329.7,608.1z M-333.6,629.9
		c1.7,0.1,3.5,0.3,5.2,0.4c0,0.1,0,0.3,0,0.4c-1.7-0.1-3.5-0.2-5.2-0.3C-333.6,630.2-333.6,630-333.6,629.9z M-340.4,632.4
		c1.4,0,2.6,0,4,0c0.7,0,1.5-0.1,1.7,0.9c0.3,0.8,2.8,1.2,4.2,0.7c1.8-0.6,2-0.6,1.9,1.6c-0.3,4.2-2.3,7.7-5.2,10.8
		c-0.6,0.6-1.2,1.4-1.9,1.9C-337.3,643-338.9,637.7-340.4,632.4z M-343.7,698.8c-5.1-5.2-7.7-11.1-7.4-18.2c0.3-6.3,2.9-11.8,7-16.3
		c1.2-1.4,2.6-2.7,3.8-4c1.6,7.6,3.1,15.2,4.8,22.8c1.6,7.4,3,14.7,4.4,22.1C-335.9,704.4-340.2,702.4-343.7,698.8z M-323.6,709
		c0.7,1.1,1.5,1.7,1.5,2.4c0,0.6-0.9,0.9-1.6,1.5c-0.6-0.6-1.2-1.1-1.5-1.7C-325.2,710.5-324.3,710-323.6,709z M-322.7,685.7
		c-0.2,0.6-0.6,1.1-0.9,1.7c-0.3-0.6-0.6-1.1-0.8-1.7c-3.2-10.6-6.3-21.2-9.6-31.7c0.7-0.7,1.6-1.6,2.3-2.3c4.9-5.1,8-10.9,7.8-18.1
		c0-0.2,0.1-0.6,0.4-0.8c0.1,0.4,0.2,0.7,0.2,1.1c-0.4,7.1,2.9,12.7,7.5,17.6c0.8,0.9,1.7,1.7,2.7,2.7
		C-316.3,664.5-319.5,675.2-322.7,685.7z M-302.7,698.2c-3.6,4-8.2,6.3-13.4,7c0.3-1.5,0.6-2.9,0.9-4.3c2.9-13.6,5.7-27.1,8.6-40.7
		c0.6,0.6,1.1,1.1,1.7,1.7c4.5,4.8,7.8,10.2,8.7,16.9C-295.3,686.2-297.9,692.6-302.7,698.2z"/>
</g>
</svg>
