<svg xmlns="http://www.w3.org/2000/svg" xmlns:xlink="http://www.w3.org/1999/xlink" version="1.1" id="Layer_1" x="0px" y="0px" viewBox="18.1 19.2 263.8 269.2" enable-background="new 18.1 19.2 263.8 269.2" xml:space="preserve">
<g>
	<path fill="none" stroke="#FFFFFF" stroke-width="11" stroke-linecap="round" stroke-linejoin="round" stroke-miterlimit="10" d=" M263 269.2c0-56-28.9-78-77.1-84.2c20.7-14.3 34.7-41 34.7-71.5c0-45.6-31-75.1-69.3-75.1S82 67.8 82 113.4 c0 30.6 13.9 57.2 34.7 71.5C68.4 191.2 37 213.2 37 269.2"/>
	<g>
		<path fill="#FFFFFF" d="M189 205.9c0.1 1.5 0.2 3.1 0.3 4.6c0.1 1 0.3 1.9 0.3 2.9c0 1-0.1 2.1-0.1 3.1c0 0.7-0.1 1.5-0.2 2.2 c-0.2 1.8-0.7 3.5-1.2 5.2c-0.5 1.8-1 3.6-1.6 5.5c-0.2 0.8-0.6 1.7-0.8 2.5c-0.3 1.2-1 1.2-1.9 0.9c-1.6-0.6-3.3-1.1-4.9-1.7 c-1.1-0.4-2.2-0.9-3.3-1.3c-1.8-0.7-3.6-1.6-5.4-2.1c-1.1-0.3-2.2-0.9-3.3-1.3c-1.1-0.5-2.2-0.9-3.3-1.4c-1.4-0.7-2.8-1.4-4.1-2.4 c-1.1-1-2.3-1.8-3.5-2.8c-0.2-0.1-0.4-0.2-0.7-0.2c-0.6-0.1-1.2-0.2-1.8 0c-0.6 0.2-1.3 0-2-0.1c-1.2-0.2-2.3-0.3-3.5 0.1 c-0.6 0.2-1.3 0.2-2 0.3c-1.4 0.2-2.8 0.6-4 1.4c-1.9 1.3-3.9 2.4-6 3.5c-2.5 1.3-5.1 2.3-7.6 3.5c-2.1 1-4.1 2-6.2 2.9 c-1.8 0.7-3.6 1.3-5.5 1.9c-0.7 0.2-1.1 0-1.3-0.7c-0.2-0.5-0.4-0.7-0.9-0.6c-0.5 0.1-0.7-0.2-0.8-0.7c-0.5-2.1-1.1-4.1-1.6-6.2 c-0.6-2.6-1.1-5.1-1.6-7.7c-0.2-1.3-0.3-2.7-0.3-4.1c0-0.8 0.1-1.6 0.2-2.5c0-0.4 0.1-0.8 0.1-1.2c-0.1-3.2 0.5-6.2 1.4-9.3 c0.8-2.7 1.6-5.4 2.4-8.1c0.3-0.9 0.5-0.9 1.4-0.7c2.2 0.6 4.5 1.2 6.7 1.8c2.4 0.7 4.8 1.5 7.1 2.3c2.3 0.8 4.5 1.8 6.6 3 c2.3 1.3 4.5 2.8 6.5 4.6c0.7 0.6 1.4 1.2 2 1.7c0.1 0.1 0.3 0.1 0.4 0.1c0.4 0.1 0.8 0.1 1.1 0.2c0.1 0 0.2 0.1 0.3 0 c0.5-0.4 1.1-0.3 1.6-0.3c0.5 0 1.1 0 1.6 0c0.4 0 0.8-0.1 1 0.5c0 0.1 0.4 0.2 0.5 0.2c0.9 0 1.7-0.1 2.6-0.2 c0.5-0.1 1-0.4 1.5-0.3c0.9 0.1 1.3-0.4 1.8-1c2-2.4 4.5-4.2 7.1-5.7c2.8-1.6 5.8-2.7 8.9-3.6c2.7-0.8 5.3-1.6 8-2.4 c1-0.3 2.1-0.6 3.1-1c0.5-0.2 0.6 0.2 0.7 0.5c0.3 1 0.7 1.9 0.9 2.9c0.4 1.5 0.8 3 1.2 4.5c0.5 2 1 4 1.5 6 C189 205.5 188.9 205.7 189 205.9C188.9 205.9 188.9 205.9 189 205.9z"/>
	</g>
</g>
</svg>
