<svg xmlns="http://www.w3.org/2000/svg" xmlns:xlink="http://www.w3.org/1999/xlink" version="1.1" x="0px" y="0px" viewBox="0 0 300 300" enable-background="new 0 0 300 300" xml:space="preserve">
<polyline fill="none" stroke="#FFFFFF" stroke-width="11" stroke-linecap="round" stroke-linejoin="round" stroke-miterlimit="10" points="262.9,137.2 262.9,258.8 180.4,258.8 180.4,144 119.5,144 119.5,258.8 37.1,258.8 37.1,137.2 36.9,137.4 150,41.2 263.1,137.4"/>
<path fill="none" stroke="#FFFFFF" stroke-width="11" stroke-linecap="round" stroke-linejoin="round" stroke-miterlimit="10" d=" M-117.142 59.029c20.708-14.282 34.651-40.953 34.651-71.522c0-45.617-31.023-82.596-69.292-82.596s-69.292 36.98-69.292 82.6 c0 30.6 13.9 57.2 34.7 71.522c-48.18 6.225-83.21 28.209-83.21 84.185h235.702C-33.932 87.237-68.962 65.254-117.142 59 z"/>
<path fill="none" stroke="#FFFFFF" stroke-width="11" stroke-linecap="round" stroke-linejoin="round" stroke-miterlimit="10" d=" M-494.211 315.65c-4.774-1.451-16.121 3.178-19.965 0c-11.967-9.887-18.796-26.811-17.418-41.712 c0.462-5.004 11.863-9.781 14.227-14.223c1.17-2.195 0.936-7.639-0.022-9.939c-2.675-6.485-13.376-17.182-19.864-19.867 c-2.289-0.951-7.739-1.164-9.932 0c-4.487 2.398-9.318 13.882-14.377 14.381c-14.472 1.423-31.05-5.069-40.65-16.696 c-3.323-4.025 1.516-15.87 0-20.86c-0.733-2.374-4.743-6.072-7.037-7.019c-6.508-2.682-21.601-2.682-28.104 0 c-2.292 0.947-6.3 4.652-7.027 7.026c-1.523 5 3.3 16.8 0 20.853c-9.746 11.799-26.501 18.458-41.189 17.1 c-5.19-0.5-10.145-12.287-14.743-14.74c-2.191-1.164-7.626-0.947-9.932 0c-6.489 2.684-17.186 13.379-19.877 19.9 c-0.951 2.3-1.168 7.7 0 9.939c2.46 4.6 14.3 9.6 14.8 14.74c1.399 14.691-5.259 31.442-17.052 41.2 c-4.19 3.467-16.555-1.581-21.749 0c-2.381 0.724-6.079 4.732-7.027 7.023c-2.681 6.492-2.681 21.6 0 28.1 c0.948 2.3 4.6 6.3 7 7.029c5.194 1.6 17.559-3.467 21.7 0c11.617 9.6 18.1 26.2 16.7 40.7 c-0.527 5.375-12.726 10.504-15.266 15.267c-1.165 2.19-0.951 7.6 0 9.938c2.692 6.5 13.4 17.2 19.9 19.9 c2.291 0.9 7.7 1.2 9.9 0c4.714-2.517 9.788-14.619 15.108-15.109c14.905-1.378 31.8 5.5 41.7 17.4 c3.319 4.016-1.523 15.9 0 20.862c0.727 2.4 4.7 6.1 7 7.032c6.503 2.7 21.6 2.7 28.1 0 c2.294-0.953 6.299-4.662 7.023-7.032c1.53-4.983-3.323-16.846 0-20.862c9.752-11.786 26.507-18.438 41.193-17.04 c5.183 0.5 10.1 12.3 14.7 14.737c2.193 1.2 7.6 0.9 9.9 0c6.491-2.689 17.189-13.393 19.878-19.878 c0.95-2.288 1.164-7.748 0-9.938c-2.455-4.6-14.241-9.554-14.737-14.737c-1.398-14.681 5.253-31.442 17.046-41.188 c3.844-3.176 15.2 1.5 20 0c2.379-0.716 6.079-4.729 7.032-7.029c2.689-6.494 2.689-21.609 0-28.101 C-488.124 320.375-491.833 316.37-494.211 315.65z M-623.297 384.76c-26.536 0-48.033-21.513-48.033-48.044 c0-26.525 21.497-48.029 48.033-48.029c26.53 0 48 21.5 48 48.029C-575.257 363.247-596.766 384.76-623.297 384.76z"/>
<g>
	<path fill="none" stroke="#FFFFFF" stroke-width="11" stroke-linecap="round" stroke-linejoin="round" stroke-miterlimit="10" d=" M-141.523 454.183c10.343 2 20.2 7 28.2 15.035c21.377 21.4 21.4 56 0 77.36l-0.187-0.187l-69.619 69.6 c-21.377 21.377-55.975 21.377-77.36 0c-21.377-21.377-21.377-55.975 0-77.36l29.549-29.549"/>
	<path fill="none" stroke="#FFFFFF" stroke-width="11" stroke-linecap="round" stroke-linejoin="round" stroke-miterlimit="10" d=" M-162.046 547.155c-10.343-2-20.214-7.017-28.231-15.035c-21.377-21.377-21.377-55.975 0-77.36l0.187 0.187l69.619-69.619 c21.377-21.377 55.975-21.377 77.4 0s21.377 56 0 77.36l-29.549 29.5"/>
</g>
</svg>
