<?xml version="1.0" encoding="utf-8"?>
<!-- Generator: Adobe Illustrator 17.1.0, SVG Export Plug-In . SVG Version: 6.00 Build 0)  -->
<!DOCTYPE svg PUBLIC "-//W3C//DTD SVG 1.1//EN" "http://www.w3.org/Graphics/SVG/1.1/DTD/svg11.dtd">
<svg version="1.1" id="Layer_1" xmlns="http://www.w3.org/2000/svg" xmlns:xlink="http://www.w3.org/1999/xlink" x="0px" y="0px"
	 viewBox="0 0 378.3 348.2" enable-background="new 0 0 378.3 348.2" xml:space="preserve">
<path fill="none" stroke="#FFFFFF" stroke-width="10" stroke-miterlimit="10" d="M86.1,343.2H14.3V113.4h71.8V343.2z M48.3,84.7
	h-0.5C21.8,84.7,5,67.1,5,44.9C5,22.2,22.4,5,48.9,5c26.5,0,42.8,17.2,43.3,39.8C92.1,67.1,75.3,84.7,48.3,84.7z M373.3,343.2h-81.4
	V224.3c0-31.1-12.7-52.4-40.7-52.4c-21.4,0-33.3,14.3-38.9,28.1c-2.1,4.9-1.8,11.9-1.8,18.8v124.3h-80.6c0,0,1-210.6,0-229.8h80.6
	v36.1c4.8-15.8,30.5-38.3,71.7-38.3c51,0,91.1,33.1,91.1,104.2V343.2z"/>
</svg>
