<?xml version="1.0" encoding="utf-8"?>
<!-- Generator: Adobe Illustrator 17.1.0, SVG Export Plug-In . SVG Version: 6.00 Build 0)  -->
<!DOCTYPE svg PUBLIC "-//W3C//DTD SVG 1.1//EN" "http://www.w3.org/Graphics/SVG/1.1/DTD/svg11.dtd">
<svg version="1.1" id="Layer_1" xmlns="http://www.w3.org/2000/svg" xmlns:xlink="http://www.w3.org/1999/xlink" x="0px" y="0px"
	 viewBox="0 0 434.1 342.3" enable-background="new 0 0 434.1 342.3" xml:space="preserve">
<path fill="none" stroke="#FFFFFF" stroke-width="10" stroke-miterlimit="10" d="M430,44.3c-15,6.7-31.2,11.2-48.2,13.2
	c17.3-10.4,30.6-26.8,36.9-46.4c-16.2,9.6-34.1,16.6-53.3,20.3C350.1,15.2,328.3,5,304.2,5c-46.3,0-83.9,37.6-83.9,83.9
	c0,6.6,0.7,13,2.2,19.1c-69.7-3.5-131.5-36.9-172.9-87.7c-7.2,12.4-11.4,26.8-11.4,42.2c0,29.1,14.8,54.8,37.3,69.8
	c-13.7-0.4-26.7-4.2-38-10.5v1c0,40.7,28.9,74.6,67.3,82.3c-7,2-14.4,3-22.1,3c-5.4,0-10.7-0.5-15.8-1.5
	c10.7,33.3,41.6,57.6,78.4,58.2c-28.7,22.5-64.9,35.9-104.2,35.9c-6.8,0-13.5-0.4-20-1.2c37.1,23.8,81.2,37.7,128.6,37.7
	c154.3,0,238.7-127.8,238.7-238.7c0-3.6-0.1-7.3-0.2-10.9C404.5,75.9,418.8,61.2,430,44.3"/>
</svg>
